<svg width="49" height="49" viewBox="0 0 49 49" fill="none" xmlns="http://www.w3.org/2000/svg">
<rect width="49" height="49" rx="10" fill="white"/>
<path d="M20.5574 26.8598C20.4443 26.8598 18.073 26.8605 16.9793 26.8594C16.4163 26.8591 16.2154 26.6567 16.2154 26.0901C16.2147 24.6346 16.2143 23.1791 16.2154 21.7237C16.2158 21.1642 16.4282 20.9507 16.984 20.9504C18.0777 20.9497 20.436 20.95 20.5574 20.95C20.5574 20.8503 20.557 18.749 20.5574 17.7813C20.5581 16.3507 20.8133 14.9812 21.5402 13.7273C22.2843 12.4439 23.3672 11.5648 24.755 11.0565C25.6438 10.7307 26.5665 10.6007 27.5097 10.6C28.6898 10.5993 29.8698 10.6004 31.0503 10.6025C31.5575 10.6033 31.7825 10.8275 31.7836 11.3384C31.7858 12.7075 31.7858 14.0765 31.7836 15.4453C31.7829 15.9615 31.5672 16.1689 31.0485 16.1746C30.0812 16.1851 29.1131 16.1786 28.1469 16.2175C27.1709 16.2175 26.6576 16.6941 26.6576 17.7043C26.6342 18.7727 26.6478 19.8423 26.6478 20.9497C26.7393 20.9497 29.5167 20.9493 30.8148 20.9497C31.4045 20.9497 31.6061 21.1523 31.6061 21.7453C31.6061 23.1928 31.6058 24.6407 31.6047 26.0883C31.6043 26.6726 31.415 26.8591 30.8217 26.8594C29.5235 26.8601 26.7569 26.8598 26.636 26.8598V38.576C26.636 39.2006 26.4394 39.3997 25.8231 39.3997C24.3204 39.3997 22.8174 39.4 21.3148 39.3997C20.7701 39.3997 20.5577 39.188 20.5577 38.6433C20.5574 34.8277 20.5574 26.9937 20.5574 26.8598Z" fill="#3D6AD6"/>
</svg>
