<svg width="49" height="49" viewBox="0 0 49 49" fill="none" xmlns="http://www.w3.org/2000/svg">
<rect width="49" height="49" rx="10" fill="#F5F5F5"/>
<g clip-path="url(#clip0_29_115)">
<path d="M15.6486 28.1294L14.6044 32.0277L10.7876 32.1085C9.64699 29.9928 9 27.5723 9 25C9 22.5126 9.60492 20.167 10.6772 18.1016H10.678L14.076 18.7246L15.5645 22.1022C15.2529 23.0104 15.0831 23.9854 15.0831 25C15.0833 26.1011 15.2827 27.1561 15.6486 28.1294Z" fill="#FBBB00"/>
<path d="M38.7379 22.1978C38.9101 23.1052 38.9999 24.0423 38.9999 25C38.9999 26.0739 38.887 27.1214 38.6719 28.1319C37.9417 31.5704 36.0338 34.5728 33.3907 36.6975L33.3898 36.6967L29.1099 36.4783L28.5042 32.697C30.258 31.6684 31.6286 30.0588 32.3506 28.1319H24.3297V22.1978H32.4676H38.7379Z" fill="#518EF8"/>
<path d="M33.3898 36.6967L33.3906 36.6975C30.82 38.7637 27.5546 40 24 40C18.2876 40 13.3211 36.8072 10.7876 32.1085L15.6486 28.1294C16.9153 31.5102 20.1766 33.9168 24 33.9168C25.6433 33.9168 27.1829 33.4725 28.5041 32.697L33.3898 36.6967Z" fill="#28B446"/>
<path d="M33.5745 13.4533L28.7152 17.4316C27.3479 16.5769 25.7316 16.0832 24.0001 16.0832C20.0902 16.0832 16.7679 18.6002 15.5646 22.1022L10.6781 18.1016H10.6772C13.1737 13.2885 18.2028 10 24.0001 10C27.6396 10 30.9767 11.2964 33.5745 13.4533Z" fill="#F14336"/>
</g>
<defs>
<clipPath id="clip0_29_115">
<rect width="30" height="30" fill="white" transform="translate(9 10)"/>
</clipPath>
</defs>
</svg>
