<svg width="49" height="49" viewBox="0 0 49 49" fill="none" xmlns="http://www.w3.org/2000/svg">
<rect width="49" height="49" rx="10" fill="white"/>
<g clip-path="url(#clip0_29_117)">
<path d="M38.9925 40V39.9988H39V28.9962C39 23.6137 37.8412 19.4675 31.5487 19.4675C28.5237 19.4675 26.4937 21.1275 25.665 22.7012H25.5775V19.97H19.6112V39.9988H25.8237V30.0813C25.8237 27.47 26.3187 24.945 29.5525 24.945C32.7387 24.945 32.7862 27.925 32.7862 30.2487V40H38.9925Z" fill="#0077B5"/>
<path d="M9.495 19.9713H15.715V40H9.495V19.9713Z" fill="#0077B5"/>
<path d="M12.6025 10C10.6137 10 9 11.6138 9 13.6025C9 15.5913 10.6137 17.2388 12.6025 17.2388C14.5912 17.2388 16.205 15.5913 16.205 13.6025C16.2038 11.6138 14.59 10 12.6025 10V10Z" fill="#0077B5"/>
</g>
<defs>
<clipPath id="clip0_29_117">
<rect width="30" height="30" fill="white" transform="translate(9 10)"/>
</clipPath>
</defs>
</svg>
