<svg width="40" height="40" viewBox="0 0 40 40" fill="none" xmlns="http://www.w3.org/2000/svg">
<rect width="40" height="40" rx="12" fill="#1E2022"/>
<g clip-path="url(#clip0_1_162)">
<path d="M21.1374 29.5492L27.7173 27.7856C28.2395 27.6461 28.553 27.1025 28.4122 26.5803L25.6524 16.2765C25.2884 14.917 24.054 14.206 22.8236 14.5356C22.13 13.8153 21.0749 13.4844 20.0412 13.7621C19.0632 14.0239 18.3418 14.7655 18.0614 15.6666" stroke="#FFA600" stroke-miterlimit="10" stroke-linecap="round" stroke-linejoin="round"/>
<path d="M14.1881 18.6262L12.7558 18.2421C11.4151 17.8833 10.0239 18.6861 9.66377 20.027L8.55429 24.1694C8.1956 25.5104 8.99815 26.9018 10.3401 27.262L11.7712 27.6461" stroke="#FFA600" stroke-miterlimit="10" stroke-linecap="round" stroke-linejoin="round"/>
<path d="M12.2907 25.7097L11.245 25.4293C10.7587 25.2991 10.4637 24.7874 10.5939 24.301L11.4961 20.9333C11.6264 20.4469 12.1379 20.1506 12.6242 20.2821L13.67 20.5612" stroke="#FFA600" stroke-miterlimit="10" stroke-linecap="round" stroke-linejoin="round"/>
<path d="M14.3476 18.0282L18.9556 19.2628L18.6726 20.3193C18.5265 20.8655 18.8533 21.4318 19.3981 21.578C19.9442 21.7241 20.5103 21.3972 20.6565 20.851M20.9394 19.7958L20.3681 21.9301C20.1741 22.6517 20.6059 23.4 21.3274 23.5926C22.0489 23.7867 22.797 23.3548 22.9897 22.6331" stroke="#FFA600" stroke-miterlimit="10" stroke-linecap="round" stroke-linejoin="round"/>
<path d="M13.3391 29.8216L12.2841 29.5385C11.7605 29.3977 11.447 28.8555 11.5879 28.3318L14.3476 18.0282C14.7116 16.67 15.9475 15.9576 17.1765 16.2872C17.8714 15.5682 18.9251 15.2373 19.9588 15.515C20.9939 15.7915 21.7406 16.6048 21.9825 17.5763C23.2129 17.9059 23.9264 19.1392 23.5624 20.4974L20.8013 30.8024C20.6617 31.3247 20.1183 31.6384 19.5961 31.4975L17.405 30.9114" stroke="#FFA600" stroke-miterlimit="10" stroke-linecap="round" stroke-linejoin="round"/>
<path d="M31.4257 22.3421L31.4457 22.4165C31.8045 23.7588 31.0019 25.1502 29.6612 25.5091L28.2288 25.8932M25.8119 16.8733L27.2442 16.4892C28.5849 16.1304 29.9761 16.9331 30.3362 18.2754" stroke="#FFA600" stroke-miterlimit="10" stroke-linecap="round" stroke-linejoin="round"/>
<path d="M27.7106 23.9568L28.755 23.6777C29.2413 23.5475 29.5376 23.0345 29.4075 22.5481L28.5052 19.1804C28.3737 18.694 27.8621 18.399 27.3758 18.5292L26.3314 18.8083" stroke="#FFA600" stroke-miterlimit="10" stroke-linecap="round" stroke-linejoin="round"/>
<path d="M25.6524 16.2765L21.8935 17.2839" stroke="#FFA600" stroke-miterlimit="10" stroke-linecap="round" stroke-linejoin="round"/>
<path d="M15.2445 11.6636L16.3314 13.5349" stroke="#FFA600" stroke-miterlimit="10" stroke-linecap="round" stroke-linejoin="round"/>
<path d="M12.4993 14.0199L14.5921 14.5742" stroke="#FFA600" stroke-miterlimit="10" stroke-linecap="round" stroke-linejoin="round"/>
<path d="M18.662 10.4609L18.0973 12.55" stroke="#FFA600" stroke-miterlimit="10" stroke-linecap="round" stroke-linejoin="round"/>
<path d="M27.1646 13.6891C27.8382 13.6891 28.3883 13.1388 28.3883 12.465C28.3883 11.7912 27.8382 11.2424 27.1646 11.2424C26.4909 11.2424 25.9408 11.7912 25.9408 12.465C25.9408 13.1388 26.4909 13.6891 27.1646 13.6891Z" stroke="#FFA600" stroke-miterlimit="10" stroke-linecap="round" stroke-linejoin="round"/>
<path d="M22.6734 10.514C23.2036 10.514 23.6354 10.0821 23.6354 9.55188C23.6354 9.02294 23.2036 8.58968 22.6734 8.58968C22.1446 8.58968 21.7114 9.02294 21.7114 9.55188C21.7114 10.0821 22.1446 10.514 22.6734 10.514Z" stroke="#FFA600" stroke-miterlimit="10" stroke-linecap="round" stroke-linejoin="round"/>
<path d="M10.473 10.9154C11.1467 10.9154 11.6954 10.3666 11.6954 9.6928C11.6954 9.01897 11.1467 8.46875 10.473 8.46875C9.7993 8.46875 9.24927 9.01897 9.24927 9.6928C9.24927 10.3666 9.7993 10.9154 10.473 10.9154Z" stroke="#FFA600" stroke-miterlimit="10" stroke-linecap="round" stroke-linejoin="round"/>
<path d="M9.87381 16.8574C10.4026 16.8574 10.8344 16.4241 10.8344 15.8952C10.8344 15.3649 10.4026 14.933 9.87381 14.933C9.34356 14.933 8.91174 15.3649 8.91174 15.8952C8.91174 16.4241 9.34356 16.8574 9.87381 16.8574Z" stroke="#FFA600" stroke-miterlimit="10" stroke-linecap="round" stroke-linejoin="round"/>
<path d="M15.3694 30.3652L15.3721 30.3665" stroke="#FFA600" stroke-miterlimit="10" stroke-linecap="round" stroke-linejoin="round"/>
<path d="M30.877 20.307L30.8787 20.3087" stroke="#FFA600" stroke-miterlimit="10" stroke-linecap="round" stroke-linejoin="round"/>
</g>
<defs>
<clipPath id="clip0_1_162">
<rect width="24" height="24" fill="white" transform="translate(8 8)"/>
</clipPath>
</defs>
</svg>
